# xmcd
#
# Track frame offsets:
# 150
# 12082
# 25450
# 35373
# 47021
# 61922
# 75509
# 87023
# 101284
# 114660
#
# Disc length: 1667 seconds
#
#
# Revision: 0
# Processed by: cddbd v1.4PL0 Copyright (c) Steve Scherf et al.
# Submitted via: FreeRIP 2.35 
#
DISCID=6a06810a
DTITLE=Johnny Paycheck - Good Old Country
DYEAR=1900
DGENRE=
TTITLE0=Take This Job And Shove It
TTITLE1=She's All I Got
TTITLE2=Mr. Lovemaker
TTITLE3=Song and Dance Man
TTITLE4=Green Grass Of Home
TTITLE5=Someone To Give My Love To
TTITLE6=Please Release Me
TTITLE7=I'm The Only Hell My Mama Raised
TTITLE8=Slide Off Your Satin Sheets
TTITLE9=Jukebox Charlie
EXTD=
EXTT0=
EXTT1=
EXTT2=
EXTT3=
EXTT4=
EXTT5=
EXTT6=
EXTT7=
EXTT8=
EXTT9=
PLAYORDER=
